<?xml version="1.0" encoding="utf-8"?>
<!-- Generator: Adobe Illustrator 27.5.0, SVG Export Plug-In . SVG Version: 6.00 Build 0)  -->
<svg version="1.1" xmlns="http://www.w3.org/2000/svg" xmlns:xlink="http://www.w3.org/1999/xlink" x="0px" y="0px"
	 viewBox="0 0 500 500" style="enable-background:new 0 0 500 500;" xml:space="preserve">
<g id="Background">
	<rect style="fill:#F0F0F1;" width="500" height="500"/>
</g>
<g id="Graphic_Elements">
	<g>
		<path style="fill:#FFFFFF;" d="M366.785,264.887c-0.256-3.396-0.6-6.79-1.195-10.152c-1.262-7.134-3.661-13.889-6.842-20.37
			c-2.148-4.376-4.467-8.672-7.365-12.607c-4.068-5.523-8.904-10.329-14.191-14.678c-6.071-4.994-12.388-9.665-18.776-14.244
			c-4.413-3.163-8.529-6.668-12.231-10.669c-5.637-6.091-10.67-12.668-15.721-19.232c-2.051-2.666-3.587-5.652-4.94-8.728
			c-5.043-11.463-8.113-23.456-9.638-35.863c-1.174-9.553-2.846-19.026-4.618-28.481c-2.02-10.778-5.587-21.057-10.277-30.954
			c-1.907-4.025-3.997-7.942-6.849-11.406c-2.408-2.924-5.345-4.931-9.139-5.604c-1.024-0.182-2.056-0.234-3.078-0.386
			c-3.884-0.579-7.296,0.47-10.489,2.725c-3.754,2.652-6.01,6.326-7.631,10.47c-5.24,13.4-8.394,27.18-7.847,41.693
			c0.214,5.679,0.759,11.295,1.844,16.862c2.054,10.533,4.904,20.864,7.984,31.134c0.856,2.855,1.568,5.758,2.813,8.49
			c1.111,2.438,2.175,4.899,3.199,7.375c4.051,9.801,7.368,19.87,10.806,29.893c0.636,1.855,1.428,3.62,2.388,5.323
			c1.196,2.122,2.352,4.267,3.537,6.395c2.785,4.999,5.261,10.176,8.522,14.903c0.138,0.2,0.267,0.409,0.378,0.625
			c0.17,0.332,0.333,0.708-0.048,0.979c-0.271,0.193-0.595,0.066-0.849-0.12c-0.54-0.395-1.097-0.775-1.593-1.221
			c-1.452-1.304-2.803-2.707-4.027-4.232c-0.624-0.777-1.27-1.535-1.907-2.301c0.395,3.057,0.991,5.969,1.635,8.87
			c0.878,3.956,1.093,7.959,0.871,11.988c-0.056,1.026-0.231,2.064-0.506,3.054c-0.272,0.98-0.961,1.111-1.591,0.338
			c-0.457-0.56-0.825-1.209-1.143-1.862c-1.522-3.125-2.87-6.324-3.878-9.654c-1.165-3.847-2.269-7.712-3.425-11.561
			c-0.443-1.476-0.507-1.526-1.898-1.024c-4.639,1.674-9.355,3.167-13.828,5.259c-5.598,2.619-11.435,4.473-17.398,6.04
			c-12.287,3.228-24.839,4.863-37.405,6.44c-7.132,0.895-13.944,2.885-20.362,6.118c-5.45,2.745-9.744,6.841-13.156,11.857
			c-4.662,6.855-5.709,14.524-4.792,22.557c0.818,7.166,2.43,14.15,5.068,20.89c1.141,2.915,2.55,5.664,4.384,8.189
			c1.043,1.436,1.903,2.976,2.75,4.524c0.336,0.615,0.931,1.35,0.344,2.008c-0.58,0.65-1.385,0.185-2.038-0.089
			c-1.042-0.438-2.047-0.962-3.257-1.54c0.175,1.904,0.315,3.589,0.337,5.282c0.058,4.397-0.708,8.733-0.904,13.115
			c-0.186,4.143-0.411,8.273,0.165,12.393c0.423,3.021,0.982,6.022,2.567,8.705c2.076,3.515,4.22,6.986,6.505,10.37
			c1.58,2.341,3.462,4.392,5.657,6.172c1.702,1.381,3.363,2.816,4.903,4.381c0.384,0.391,0.796,0.762,1.02,1.277
			c0.236,0.541,0.085,0.975-0.462,1.189c-0.631,0.246-1.298,0.306-1.977,0.235c-1.393-0.145-2.788-0.257-4.121-0.749
			c-0.366-0.135-0.789-0.399-1.194,0.054c0.208,1.3,0.456,2.614,0.624,3.937c0.716,5.613,1.267,11.242,2.132,16.844
			c1.229,7.957,4.801,14.494,10.825,19.737c1.802,1.568,3.384,3.33,4.941,5.123c0.464,0.534,1.185,1.087,0.814,1.883
			c-0.378,0.812-1.274,0.502-1.974,0.564c-1.341,0.119-2.597-0.465-3.983-0.609c-0.145,1.17,0.303,2.142,0.4,3.153
			c0.279,2.908,0.484,5.826,0.874,8.718c1.001,7.429,4.562,13.533,9.906,18.674c1.106,1.064,2.343,1.977,3.738,2.596
			c3.692,1.639,7.619,2.771,11.551,3.315c7.779,1.077,15.535,2.246,23.255,3.672c5.213,0.963,10.31,2.412,15.452,3.677
			c6.151,1.513,12.439,2.276,18.718,3.104c7.784,1.026,14.605-1.09,20.619-5.92c3.45-2.771,5.971-6.383,8.318-10.115
			c3.564-5.667,6.918-11.482,11.599-16.368c1.306-1.363,2.444-2.949,2.804-4.852c0.733-3.87-0.182-7.488-2.015-10.901
			c-0.375-0.698-0.924-1.4-1.797-1.396c-0.998,0.005-1.156,0.985-1.45,1.67c-1.281,2.989-3.057,5.667-4.923,8.314
			c-2.221,3.151-5.034,5.788-7.392,8.814c0.628-0.139,1.033-0.619,1.506-0.993c2.294-1.817,4.706-3.451,7.326-4.765
			c0.272-0.136,0.537-0.294,0.822-0.393c0.441-0.152,0.923-0.53,1.355-0.099c0.52,0.518,0.068,1.042-0.184,1.483
			c-1.304,2.275-2.805,4.426-4.586,6.345c-4.88,5.257-9.736,10.542-15.148,15.274c-0.827,0.723-1.67,1.417-2.654,1.915
			c-0.741,0.376-1.511,0.563-2.211-0.061c-0.665-0.592-0.477-1.335-0.216-2.03c0.932-2.48,2.475-4.591,4.092-6.652
			c1.732-2.208,3.76-4.136,5.747-6.104c0.17-0.169,0.292-0.386,0.437-0.581c0,0,0,0,0,0c-3.14,1.625-6.212,3.326-8.518,6.134
			c-0.924,1.125-2.034,2.099-3.078,3.121c-0.389,0.381-0.812,0.739-1.26,1.047c-0.471,0.324-1.011,0.487-1.525,0.084
			c-0.584-0.459-0.516-1.072-0.26-1.66c0.418-0.957,1.084-1.757,1.708-2.584c0.234-0.31,0.691-0.558,0.438-1.074
			c-0.791,0-1.572,0.029-2.35-0.005c-6.242-0.268-12.328-1.488-18.296-3.242c-12.21-3.588-24.527-6.796-36.703-10.507
			c-5.467-1.666-11.072-2.875-16.609-4.314c-0.711-0.185-1.85-0.162-1.663-1.244c0.146-0.845,1.185-0.676,1.876-0.707
			c4.939-0.222,9.861,0.018,14.758,0.695c7.842,1.084,15.575,2.767,23.327,4.329c4.892,0.986,9.715,2.302,14.512,3.695
			c5.085,1.477,10.103,3.208,15.338,4.119c2.337,0.407,4.69,0.86,7.066,0.32c3.776-0.858,7.025-2.712,9.779-5.41
			c1.389-1.361,2.601-2.896,4.121-4.131c1.145-0.93,2.016-2.102,2.82-3.335c1.769-2.712,3.315-5.552,4.56-8.531
			c1.773-4.242,4.184-8.111,6.65-11.96c2.771-4.326,6.224-8.115,9.456-12.078c1.541-1.889,3.07-3.787,4.322-5.887
			c1.718-2.884,2.107-5.865,0.977-9.108c-0.847-2.433-2.244-4.397-3.994-6.237c-2.017-2.12-4.536-2.971-7.292-3.414
			c-1.071-0.172-1.867,0.151-2.482,1.094c-0.965,1.479-2.078,2.862-3.011,4.359c-1.451,2.329-2.326,4.896-2.966,7.515
			c0.39,0.201,0.599,0.043,0.822-0.028c0.394-0.125,0.824-0.422,1.162,0.038c0.319,0.433-0.011,0.82-0.243,1.157
			c-0.553,0.802-1.139,1.581-1.72,2.363c-3.747,5.045-8.012,9.651-12.195,14.324c-2.396,2.677-4.738,5.406-7.344,7.889
			c-0.707,0.674-1.421,1.337-2.282,1.815c-0.62,0.344-1.268,0.506-1.882,0.021c-0.613-0.485-0.616-1.165-0.416-1.837
			c0.138-0.463,0.338-0.917,0.575-1.338c0.778-1.379,1.595-2.735,2.547-4.007c0.222-0.296,0.687-0.583,0.289-1.126
			c-1.569,0.525-3.115,1.078-4.682,1.558c-3.331,1.019-6.702,1.88-10.228,1.58c-3.577-0.304-7.166-0.555-10.692-1.276
			c-6.09-1.246-12.06-2.974-18.042-4.642c-7.811-2.178-15.339-5.199-22.995-7.837c-7.604-2.62-15.259-5.054-23.189-6.513
			c-1.081-0.199-2.143-0.465-3.161-0.883c-0.338-0.138-0.676-0.281-0.995-0.457c-0.381-0.211-0.762-0.486-0.682-0.98
			c0.086-0.529,0.561-0.581,0.993-0.6c0.486-0.021,0.976-0.036,1.461-0.001c1.456,0.105,2.91,0.33,4.366,0.341
			c7.288,0.054,14.417,1.265,21.504,2.827c8.803,1.94,17.453,4.493,26.231,6.535c7.706,1.793,15.278,4.116,23.081,5.549
			c6.617,1.215,12.669,0.174,18.42-3.264c4.013-2.399,7.514-5.39,10.772-8.698c1.248-1.267,2.306-2.709,3.024-4.326
			c1.783-4.017,4.07-7.758,6.113-11.632c4.355-8.254,9.169-16.222,14.163-24.092c0.85-1.34,1.613-2.726,2.129-4.235
			c0.422-1.232,0.555-2.46,0.253-3.765c-0.454-1.961-1.074-3.873-1.574-5.817c-1.569-6.093-5.407-10.228-10.958-12.935
			c-1.877-0.915-2.137-0.909-3.421,0.629c-3.006,3.6-5.926,7.27-8.747,11.018c-0.344,0.456-0.811,0.883-0.834,1.63
			c0.603-0.063,0.98-0.375,1.385-0.611c1.422-0.831,2.885-1.583,4.408-2.206c0.537-0.22,1.255-0.736,1.656-0.132
			c0.399,0.6-0.346,1.081-0.762,1.475c-2.39,2.259-4.757,4.546-7.225,6.718c-4.763,4.193-9.176,8.726-13.436,13.419
			c-1.514,1.667-3.123,3.249-4.707,4.851c-0.647,0.655-1.389,1.194-2.286,1.465c-1.582,0.478-2.428-0.267-2.2-1.935
			c0.032-0.238,0.124-0.474-0.153-0.63c-8.753,2.241-12.701,1.863-18.962,0.816c-9.347-1.563-18.364-4.387-27.074-8.09
			c-12.275-5.219-24.484-10.586-37.299-14.407c-2.332-0.695-4.554-1.728-6.74-2.81c-0.489-0.242-0.962-0.525-1.42-0.823
			c-0.314-0.204-0.565-0.488-0.405-0.912c0.127-0.337,0.449-0.369,0.749-0.42c2.239-0.38,4.489-0.388,6.737-0.127
			c4.309,0.5,8.474,1.681,12.666,2.729c5.315,1.329,10.64,2.609,15.715,4.762c10.214,4.332,20.659,8.022,31.315,11.121
			c6.293,1.83,12.674,2.977,19.259,2.729c2.09-0.079,4.065-0.521,6.014-1.335c4.514-1.885,7.778-5.143,10.451-9.103
			c0.989-1.465,1.964-2.94,3.138-4.266c1.382-1.561,2.541-3.27,3.494-5.118c1.037-2.01,2.311-3.864,3.614-5.706
			c5.053-7.141,11.239-13.291,17.194-19.64c1.832-1.954,3.824-3.76,5.44-5.91c2.583-3.435,4.918-7.022,5.482-11.396
			c0.43-3.335-0.279-6.503-2.678-8.968c-2.557-2.628-5.7-4.382-9.354-5.025c-4.238-0.746-8.489-0.66-12.721,0.091
			c-5.732,1.017-10.856,3.449-15.742,6.558c-6.047,3.848-10.822,9.037-15.609,14.239c-0.523,0.568-0.622,1.107-0.257,1.813
			c0.304,0.588,0.55,1.234,0.671,1.882c0.34,1.826-0.551,2.823-2.39,2.749c-1.127-0.045-2.154-0.444-3.069-1.067
			c-1.106-0.753-2.188-1.549-3.23-2.388c-5.032-4.053-10.081-8.105-15.763-11.217c-10.051-5.505-20.432-10.332-31.08-14.573
			c-4.268-1.7-8.666-2.857-13.296-2.999c-0.903-0.028-1.815-0.23-2.694-0.465c-0.635-0.17-1.387-0.468-1.257-1.314
			c0.119-0.775,0.894-0.751,1.478-0.763c5.417-0.112,10.835-0.27,16.253-0.265c4.509,0.004,8.984,0.581,13.443,1.225
			c4.338,0.626,8.682,1.222,12.881,2.554c2.213,0.702,4.336,1.604,6.39,2.687c0.848,0.447,1.038,0.298,1.116-0.666
			c0.02-0.242,0.013-0.487,0.005-0.731c-0.24-7.004-0.7-13.983-2.349-20.828c-0.085-0.354-0.189-0.712-0.208-1.071
			c-0.012-0.222,0.051-0.537,0.203-0.658c0.271-0.217,0.577-0.053,0.803,0.178c0.862,0.88,1.491,1.926,2.049,3.01
			c1.594,3.094,2.754,6.371,3.971,9.62c1.473,3.935,2.717,7.953,4.37,11.823c0.562,1.316,1.257,2.514,2.429,3.359
			c3.392,2.447,7.117,3.921,11.368,3.904c1.399-0.005,2.449-0.483,3.232-1.67c1.61-2.44,3.349-4.797,4.897-7.274
			c3.166-5.065,6.574-9.964,9.995-14.856c0.389-0.557,0.759-1.588,1.564-1.208c0.826,0.39,0.225,1.329,0.031,1.964
			c-0.857,2.794-1.737,5.583-2.716,8.335c-0.558,1.57-0.111,2.996,0.293,4.458c0.162,0.587,0.582,0.738,1.138,0.549
			c0.288-0.098,0.575-0.202,0.858-0.314c6.566-2.604,13.317-3.761,20.388-2.826c4.999,0.66,9.538,2.309,13.556,5.431
			c3.089,2.4,4.954,5.405,5.628,9.276c1.036,5.952,0.617,11.649-2.41,17c-1.417,2.504-3.112,4.808-5.106,6.879
			c-2.155,2.238-4.369,4.417-6.533,6.647c-0.615,0.633-1.281,1.257-1.581,2.101c0.515,0.48,1.081,0.528,1.597,0.692
			c4.644,1.483,8.262,4.318,11.036,8.296c2.131,3.056,3.211,6.545,4.192,10.07c1.384,4.971,1.02,9.758-1.599,14.301
			c-0.719,1.247-0.686,1.333,0.582,1.901c3.685,1.652,7.042,3.87,10.466,5.973c0.362,0.222,0.732,0.454,1.029,0.751
			c0.517,0.516,0.348,1.049-0.39,1.148c-0.968,0.13-1.943,0.057-2.909-0.124c-3.122-0.583-6.164-1.442-9.116-2.619
			c-0.792-0.316-1.589-0.618-2.379-0.937c-0.759-0.307-1.146,0.125-1.432,0.722c-0.316,0.661,0.223,0.845,0.645,1.073
			c0.964,0.523,1.907,1.092,2.902,1.546c6.037,2.75,11.743,6.2,17.985,8.515c0.397,0.147,0.88,0.262,0.85,0.799
			c-0.029,0.518-0.519,0.651-0.916,0.766c-1.357,0.393-2.737,0.539-4.155,0.388c-2.8-0.299-5.524-0.918-8.173-1.863
			c-1.704-0.608-3.399-1.237-5.435-1.978c0.776,1.125,1.635,1.513,2.515,1.876c4.729,1.949,9.46,3.896,14.185,5.856
			c0.503,0.208,1.018,0.434,1.449,0.757c0.567,0.426,0.494,0.998-0.137,1.296c-0.555,0.262-1.167,0.356-1.78,0.363
			c-3.042,0.036-6.089,0.244-9.119-0.246c-0.96-0.155-1.93-0.258-2.898-0.349c-0.811-0.076-1.004,0.182-0.641,0.955
			c0.57,1.214,1.075,2.451,1.593,3.687c2.068,4.939,1.441,9.62-1.118,14.201c-1.861,3.33-4.314,6.206-6.855,8.988
			c-3.752,4.108-7.184,8.436-10.068,13.194c-0.874,1.442-0.827,1.616,0.641,2.289c2.996,1.373,4.711,3.79,5.221,7.018
			c0.332,2.102,0.558,4.223,0.77,6.341c0.507,5.066-0.985,9.513-4.382,13.271c-1.353,1.497-2.585,3.075-3.794,4.678
			c-0.203,0.269-0.538,0.54-0.155,1.055c2.87-0.535,5.781-1.08,8.593-2.103c4.459-1.622,8.368-4.181,12.195-6.918
			c3.623-2.591,7.119-5.348,10.359-8.387c2.706-2.538,5.008-5.48,7.316-8.396c4.821-6.091,8.8-12.721,12.451-19.549
			c3.072-5.747,6.072-11.535,8.197-17.727c2.501-7.288,3.921-14.825,5.177-22.399c0.063-0.38,0.259-0.83-0.223-1.237
			c-0.497,0.36-0.748,0.919-1.086,1.399c-1.403,1.992-2.757,4.02-4.208,5.975c-2.257,3.039-4.756,5.864-7.698,8.272
			c-0.804,0.658-1.621,1.29-2.571,1.725c-0.289,0.133-0.611,0.176-0.871-0.017c-0.353-0.261-0.286-0.641-0.152-0.997
			c0.085-0.227,0.198-0.445,0.311-0.66c2.798-5.272,5.585-10.546,8.84-15.564c3.814-5.88,7.281-11.961,10.279-18.309
			c3.428-7.256,5.88-14.83,7.491-22.671c2.159-10.512,3.841-21.079,3.602-31.876C367.635,274.463,367.147,269.681,366.785,264.887z
			 M263.879,450.097c0.659-1.245,1.522-2.349,2.424-3.42c2.872-3.408,6.028-6.524,9.612-9.185c0.454-0.337,0.977-1.032,1.568-0.515
			c0.608,0.532-0.031,1.129-0.34,1.594c-3.273,4.919-6.815,9.638-10.619,14.16c-0.194,0.231-0.41,0.454-0.65,0.637
			c-0.514,0.392-1.081,0.56-1.704,0.258c-0.683-0.332-0.923-0.925-0.944-1.596C263.287,451.299,263.564,450.691,263.879,450.097z
			 M279.714,406.864c-2.018,3.037-4.081,6.047-6.219,9.001c-1.852,2.559-3.646,5.165-5.725,7.555
			c-0.441,0.507-0.862,1.03-1.475,1.336c-1.144,0.571-2.08-0.018-2.091-1.414c0.09-0.947,0.522-1.883,1.029-2.789
			c1.702-3.041,3.854-5.762,6.141-8.366c2.086-2.375,4.299-4.642,6.832-6.556c0.647-0.489,1.459-1.514,2.157-0.937
			C281.194,405.382,280.132,406.235,279.714,406.864z M284.149,392.823c-0.557,0.869-1.143,1.722-1.76,2.55
			c-3.416,4.58-6.844,9.15-10.269,13.723c-2.15,2.869-4.092,5.892-6.391,8.652c-0.546,0.655-1.087,1.317-1.823,1.769
			c-0.539,0.332-1.111,0.518-1.705,0.111c-0.513-0.352-0.602-0.88-0.571-1.624c0.174-1.226,0.654-2.535,1.225-3.815
			c1.25-2.798,3.05-5.245,4.884-7.674c3.864-5.118,8.147-9.82,13.385-13.581c0.592-0.425,1.183-0.858,1.809-1.228
			c0.445-0.263,0.961-0.795,1.469-0.331C284.927,391.855,284.427,392.389,284.149,392.823z M261.619,404.393
			c1.832-3.324,4.079-6.364,6.671-9.112c4.924-5.221,9.751-10.547,15.323-15.115c1.65-1.353,3.368-2.607,5.169-3.749
			c0.409-0.26,0.847-0.48,1.285-0.688c0.277-0.132,0.594-0.2,0.848,0.049c0.263,0.257,0.184,0.585,0.021,0.839
			c-0.491,0.768-0.993,1.533-1.538,2.263c-2.8,3.76-5.731,7.418-8.86,10.907c-5.283,5.892-10.234,12.062-15.288,18.147
			c-0.508,0.612-1.018,1.218-1.716,1.62c-1.547,0.89-3.001,0.057-3.022-1.875C260.564,406.585,261.026,405.469,261.619,404.393z
			 M263.487,371.606c-0.82-0.311-1.372-1.269-1.373-2.428c0.09-0.93,0.337-1.866,0.69-2.779c1.426-3.681,3.749-6.803,6.171-9.857
			c3.011-3.797,6.647-6.919,10.616-9.667c0.649-0.45,1.297-0.924,2.066-1.145c0.594-0.17,0.987,0.231,0.775,0.805
			c-0.166,0.447-0.435,0.871-0.724,1.256c-5.157,6.858-9.871,14.019-14.533,21.216c-0.363,0.561-0.735,1.121-1.155,1.64
			C265.226,371.627,264.357,371.935,263.487,371.606z M281.953,354.288c-4.025,7.007-8.072,14.002-12.121,20.995
			c-0.303,0.524-0.627,1.044-1.007,1.513c-0.444,0.547-1.028,0.898-1.761,0.602c-0.712-0.288-0.925-0.911-0.945-1.677
			c0.144-1.237,0.6-2.427,1.153-3.581c1.632-3.409,3.611-6.615,5.854-9.649c2.348-3.176,4.732-6.331,7.627-9.047
			c0.505-0.474,1.105-1.467,1.723-1.01C283.2,352.971,282.285,353.711,281.953,354.288z M286.119,332.014
			c0.373-0.188,0.822-0.401,1.15,0.057c0.251,0.35,0.039,0.704-0.179,1.001c-0.539,0.736-1.076,1.476-1.649,2.185
			c-5.243,6.481-10.517,12.937-15.732,19.441c-2.055,2.563-3.983,5.227-5.972,7.843c-0.368,0.484-0.727,0.979-1.133,1.43
			c-0.547,0.608-1.189,1.149-2.065,0.749c-0.805-0.367-0.759-1.166-0.741-2.109c0.312-2.372,1.244-4.734,2.442-7.013
			c1.684-3.201,3.895-6.025,6.232-8.757c4.536-5.303,9.636-9.97,15.574-13.678C284.716,332.745,285.415,332.37,286.119,332.014z
			 M256.196,353.134c0.183-1.426,0.831-2.866,1.606-4.253c1.67-2.991,3.77-5.676,6-8.26c3.94-4.567,7.981-9.038,12.838-12.675
			c1.266-0.948,2.567-1.851,3.872-2.747c0.5-0.343,1.046-0.622,1.586-0.901c0.325-0.168,0.698-0.31,0.996,0.043
			c0.287,0.339,0.125,0.709-0.063,1.014c-0.51,0.828-1.014,1.666-1.597,2.443c-2.56,3.409-5.31,6.66-8.142,9.847
			c-4.364,4.912-8.876,9.707-12.482,15.241c-0.366,0.561-0.717,1.131-1.085,1.691c-0.516,0.783-1.066,1.547-2.183,1.257
			C256.622,355.596,256.116,354.615,256.196,353.134z M140.07,264.811c0.584-0.017,1.064,0.245,1.498,0.591
			c2.249,1.797,4.197,3.883,5.919,6.185c0.143,0.192,0.26,0.417,0.337,0.643c0.183,0.54-0.021,0.83-0.602,0.788
			c-0.176-0.013-0.359-0.08-0.518-0.161c-2.387-1.223-4.767-2.458-6.716-4.355c-0.526-0.512-1.032-1.049-1.241-1.777
			C138.449,265.688,139.045,264.841,140.07,264.811z M136.631,271.392c-0.459-1.337,0.341-2.509,1.727-2.559
			c0.974-0.008,1.746,0.477,2.48,1.036c2.764,2.103,5.435,4.323,8.015,6.644c1.855,1.668,3.591,3.47,5.371,5.221
			c0.39,0.384,0.771,0.784,1.108,1.214c0.315,0.402,0.952,0.847,0.468,1.38c-0.46,0.507-1.009-0.03-1.464-0.275
			c-5.696-3.077-11.023-6.711-16.109-10.706C137.55,272.814,136.92,272.233,136.631,271.392z M137.655,276.787
			c0.564-0.689,1.277-0.586,1.988-0.244c0.937,0.452,1.768,1.069,2.587,1.702c5.54,4.275,10.914,8.752,16.17,13.371
			c0.306,0.269,0.74,0.454,0.74,0.938c-0.066,0.226-0.224,0.363-0.401,0.312c-0.405-0.117-0.815-0.251-1.186-0.447
			c-6.254-3.307-12.165-7.147-17.747-11.49c-0.814-0.633-1.556-1.369-2.09-2.273C137.355,278.048,137.153,277.401,137.655,276.787z
			 M137.881,282.437c0.666-0.697,1.371-0.332,1.973,0.1c1.581,1.136,3.177,2.259,4.678,3.496c6.579,5.427,13.53,10.363,20.336,15.49
			c0.389,0.293,1.222,0.393,0.947,1.097c-0.232,0.593-0.952,0.356-1.486,0.397c-1.166-0.119-2.237-0.55-3.277-1.063
			c-2.575-1.27-4.933-2.889-7.287-4.516c-4.208-2.908-8.364-5.885-12.328-9.121c-0.846-0.691-1.617-1.476-2.406-2.234
			c-0.486-0.467-0.875-1.013-1.181-1.615C137.503,283.786,137.269,283.078,137.881,282.437z M145.605,322.381
			c0.563,0.028,1.066,0.24,1.532,0.532c2.907,1.823,5.357,4.172,7.659,6.688c0.25,0.273,0.501,0.62,0.26,0.972
			c-0.244,0.357-0.661,0.246-0.995,0.088c-3.024-1.431-5.986-2.969-8.541-5.174c-0.46-0.397-0.884-0.847-1.07-1.449
			C144.184,323.175,144.719,322.422,145.605,322.381z M201.436,446.445c0.216,0.108,0.43,0.237,0.611,0.395
			c0.565,0.491,0.52,0.911-0.153,1.27c-0.959,0.513-2.013,0.376-3.04,0.398c-1.786,0.057-3.525-0.26-5.212-0.784
			c-5.408-1.682-10.683-3.71-15.744-6.267c-1.362-0.688-2.653-1.49-3.826-2.467c-0.418-0.348-0.835-0.718-1.165-1.145
			c-0.709-0.92-0.802-1.812-0.3-2.53c0.6-0.858,1.484-1.035,2.432-0.835c0.587,0.124,1.166,0.352,1.708,0.617
			c5.959,2.911,12.07,5.478,18.153,8.11C197.129,444.172,199.262,445.356,201.436,446.445z M183.35,428.203
			c0.306,0.283,0.637,0.63,0.37,1.108c-0.241,0.431-0.693,0.497-1.12,0.446c-1.558-0.183-3.113-0.401-4.951-0.644
			c0.645,0.691,1.282,0.897,1.852,1.169c3.738,1.785,7.313,3.863,10.862,5.988c0.537,0.322,1.501,0.599,1.262,1.33
			c-0.253,0.773-1.186,0.334-1.802,0.286c-2.14-0.169-4.155-0.908-6.175-1.563c-2.894-0.938-5.696-2.128-8.473-3.37
			c-0.498-0.223-0.994-0.47-1.445-0.774c-0.835-0.564-1.515-1.261-1.389-2.384c0.135-1.202,1.048-1.523,2.304-1.74
			c-1.122-0.677-2.021-1.075-2.677-1.829c-0.815-0.935-1.022-1.837-0.586-2.661c0.471-0.889,1.47-1.299,2.682-0.956
			C177.663,423.625,180.643,425.697,183.35,428.203z M188.893,412.653c0.183,0.148,0.297,0.398,0.148,0.653
			c-0.136,0.233-0.36,0.315-0.618,0.262c-0.476-0.099-0.956-0.187-1.421-0.325c-8.083-2.387-15.805-5.593-22.909-10.179
			c-1.489-0.961-2.936-1.995-3.532-3.792c-0.579-1.746,0.506-3.259,2.301-3.241c1.029,0.009,1.863,0.52,2.663,1.076
			c2.545,1.768,5.064,3.574,7.615,5.335c4.703,3.247,9.552,6.268,14.419,9.26C188.023,411.989,188.469,412.31,188.893,412.653z
			 M175.786,394.056c0.467,0.421,1.301,0.849,0.959,1.584c-0.431,0.925-1.31,0.31-1.952,0.168c-1.167-0.259-2.302-0.661-3.45-1.003
			c-0.047,0.087-0.094,0.175-0.141,0.262c0.742,0.476,1.479,0.96,2.226,1.427c3.761,2.356,7.524,4.707,11.285,7.063
			c0.308,0.193,0.638,0.368,0.903,0.611c0.468,0.43,0.332,0.887-0.296,1.054c-0.48,0.128-0.964,0.061-1.447-0.016
			c-1.873-0.302-3.67-0.852-5.384-1.662c-6.176-2.917-12.02-6.389-17.475-10.506c-0.681-0.514-1.346-1.048-1.857-1.739
			c-0.368-0.497-0.772-1.085-0.425-1.671c0.488-0.823,0.281-1.444-0.18-2.169c-0.521-0.82-0.595-1.747-0.02-2.582
			c0.629-0.915,1.594-1.036,2.61-0.88c0.795,0.122,1.493,0.507,2.183,0.893C167.857,387.43,171.936,390.59,175.786,394.056z
			 M170.729,385.504c0.197,0.223,0.372,0.49,0.473,0.767c0.186,0.509-0.036,0.838-0.575,0.87c-0.295,0.017-0.613-0.025-0.894-0.12
			c-3.63-1.219-7.185-2.593-10.24-4.994c-0.627-0.493-1.211-1.017-1.491-1.79c-0.503-1.386,0.481-2.776,1.989-2.764
			c0.575,0.053,1.141,0.266,1.68,0.55C165.205,379.892,168.103,382.535,170.729,385.504z M180.336,364.727
			c0.219,0.12,0.38,0.342,0.335,0.599c-0.044,0.247-0.234,0.436-0.498,0.462c-0.663,0.066-1.329,0.108-1.616,0.13
			c-2.78-0.035-5.077-0.608-7.348-1.309c-6.176-1.907-11.631-5.212-16.926-8.81c-2.519-1.712-4.904-3.596-7.02-5.801
			c-0.676-0.704-1.338-1.418-1.756-2.315c-0.565-1.214-0.392-2.283,0.468-2.978c0.848-0.686,1.75-0.669,2.853,0.083
			c0.35,0.239,0.675,0.519,0.992,0.803c4.459,3.998,9.415,7.296,14.563,10.32c3.408,2.002,6.826,3.988,10.233,5.992
			c1.367,0.804,2.804,1.458,4.255,2.089C179.371,364.211,179.857,364.465,180.336,364.727z M162.065,339.34
			c0.171,0.169,0.306,0.381,0.223,0.743c-0.662,0.394-1.232-0.079-1.771-0.368c-2.837-1.52-5.652-3.079-8.477-4.621
			c-0.479-0.261-0.969-0.501-1.453-0.751c0.84,1.07,2.002,1.766,3.058,2.576c4.296,3.295,8.85,6.247,12.972,9.772
			c0.97,0.83,1.902,1.705,2.833,2.579c0.209,0.196,0.464,0.449,0.277,0.79c-0.176,0.322-0.487,0.297-0.797,0.234
			c-0.9-0.184-1.749-0.518-2.58-0.898c-2.773-1.268-5.378-2.84-7.97-4.434c-0.307-0.189-0.626-0.36-0.953-0.548
			c-0.184,0.722,0.441,0.781,0.762,0.997c5.356,3.592,10.728,7.16,16.098,10.732c0.304,0.202,0.621,0.384,0.917,0.596
			c0.198,0.142,0.373,0.332,0.293,0.608c-0.114,0.391-0.442,0.381-0.741,0.316c-1.491-0.328-2.914-0.857-4.319-1.449
			c-3.598-1.515-6.985-3.438-10.353-5.392c-3.947-2.29-7.891-4.586-11.67-7.151c-1.166-0.792-2.24-1.684-3.145-2.761
			c-1.221-1.453-1.251-2.201-0.135-3.832c0.266-0.389,0.224-0.64-0.043-0.951c-0.198-0.23-0.398-0.463-0.562-0.717
			c-0.496-0.766-0.702-1.575-0.123-2.382c0.547-0.763,1.306-1.064,2.239-0.832c0.295,0.074,0.585,0.168,0.878,0.252
			c-0.451-0.402-0.922-0.785-1.347-1.212c-0.426-0.428-0.853-0.869-1.195-1.363c-0.415-0.598-0.45-1.262,0.039-1.857
			c0.434-0.529,1.022-0.65,1.648-0.425s1.268,0.446,1.837,0.781C153.568,331.353,157.904,335.239,162.065,339.34z M169.447,311.181
			c-0.068,0.343-0.354,0.475-0.663,0.52c-0.299,0.044-0.605,0.045-0.921,0.066c-1.458-0.116-2.852-0.529-4.226-1.03
			c-4.447-1.621-8.303-4.292-12.19-6.897c-2.779-1.862-5.41-3.927-7.945-6.112c-1.438-1.239-2.682-2.647-3.779-4.185
			c-0.313-0.439-0.549-0.948-0.742-1.455c-0.24-0.631-0.044-1.209,0.45-1.651c0.5-0.448,1.105-0.522,1.701-0.242
			c0.378,0.178,0.723,0.445,1.048,0.714c5.304,4.377,10.933,8.314,16.558,12.259c3.284,2.303,6.552,4.632,9.826,6.95
			c0.198,0.14,0.399,0.28,0.582,0.439C169.33,310.718,169.499,310.92,169.447,311.181z M275.865,300.674
			c-0.211,0.5-0.49,0.977-0.784,1.436c-3.218,5.015-6.469,10.009-9.66,15.041c-1.759,2.774-3.366,5.638-4.668,8.663
			c-0.574,1.335-1.276,1.817-2.289,1.627c-1.053-0.198-1.614-1.075-1.643-2.499c-0.028-1.392,0.476-2.639,1.106-3.816
			c4.143-7.743,9.423-14.594,16.108-20.325c0.407-0.349,0.769-0.792,1.327-0.889C275.873,299.963,276.034,300.273,275.865,300.674z
			 M279.71,289.682c0.52,0.538-0.04,1.015-0.333,1.422c-0.639,0.888-1.342,1.73-2.02,2.59c-4.786,6.067-9.942,11.838-14.491,18.093
			c-1.431,1.968-2.756,4.013-4.138,6.016c-0.31,0.45-0.619,0.91-0.992,1.305c-0.816,0.862-1.662,1.086-2.441,0.687
			c-0.902-0.461-1.032-1.281-0.958-2.358c0.114-1.055,0.599-2.17,1.132-3.267c1.904-3.922,4.572-7.323,7.33-10.654
			c3.901-4.712,8.302-8.892,13.415-12.287c0.709-0.471,1.44-0.911,2.18-1.333C278.797,289.667,279.28,289.237,279.71,289.682z
			 M277.853,283.797c0.261,0.285,0.138,0.586-0.055,0.819c-0.426,0.516-0.866,1.023-1.34,1.493
			c-4.503,4.462-8.716,9.191-12.837,14.002c-2.579,3.012-4.928,6.195-6.942,9.619c-0.308,0.523-0.637,1.045-1.03,1.504
			c-0.567,0.661-1.304,0.895-2.137,0.531c-0.764-0.334-1.03-0.987-1.023-1.899c0.027-0.753,0.346-1.546,0.684-2.329
			c0.947-2.197,2.229-4.196,3.704-6.066c4.28-5.424,8.975-10.43,14.628-14.472c1.492-1.066,3.09-1.947,4.673-2.858
			c0.314-0.181,0.66-0.313,1-0.442C277.41,283.612,277.661,283.587,277.853,283.797z M250.62,292.25
			c3.126-4.682,7.345-8.018,12.537-10.147c0.112-0.046,0.228-0.098,0.346-0.11c0.5-0.055,1.1-0.58,1.469,0.084
			c0.293,0.528-0.27,0.873-0.589,1.206c-3.781,3.947-7.878,7.558-11.953,11.191c-0.411,0.367-0.879,0.65-1.469,0.685
			c-0.719-0.094-1.044-0.54-1.02-1.244C249.96,293.284,250.283,292.755,250.62,292.25z M249.015,303.871
			c0.186-0.963,0.533-1.873,0.934-2.762c1.009-2.235,2.336-4.276,3.932-6.13c5.73-6.655,12.301-12.287,20.105-16.402
			c0.753-0.397,1.517-0.801,2.375-0.911c0.826-0.106,1.205,0.389,0.774,1.083c-0.477,0.77-1.063,1.484-1.675,2.156
			c-2.339,2.571-4.931,4.876-7.549,7.157c-5.469,4.763-10.814,9.649-15.008,15.641c-0.453,0.648-0.961,1.273-1.704,1.618
			C249.989,305.884,248.921,305.166,249.015,303.871z M260.229,143.454c0.118-0.453,0.46-0.563,0.832-0.322
			c0.299,0.193,0.579,0.452,0.793,0.737c1.364,1.81,2.418,3.783,3.036,5.974c0.065,0.232,0.123,0.474,0.135,0.713
			c0.029,0.579-0.127,1.107-0.664,1.4c-0.615,0.335-1.188,0.147-1.659-0.316c-0.256-0.252-0.495-0.543-0.665-0.859
			c-1.078-2.007-1.657-4.163-1.899-6.383C260.167,144.055,260.154,143.743,260.229,143.454z M247.202,132.151
			c0.007-0.308,0.033-0.637,0.363-0.767c0.345-0.136,0.574,0.098,0.734,0.365c0.218,0.364,0.423,0.738,0.606,1.121
			c2.38,4.994,5.132,9.784,7.948,14.541c0.462,0.781,0.891,1.598,1.202,2.447c0.368,1.006,0.072,1.803-0.657,2.242
			c-0.734,0.441-1.546,0.32-2.321-0.397c-0.309-0.286-0.584-0.623-0.814-0.975c-3.498-5.359-5.799-11.193-6.919-17.493
			c-0.041-0.23-0.063-0.464-0.143-1.069c0,0.004,0,0.009,0,0.013c0.018,0.17,0.001,0.096,0,0c-0.003-0.024-0.006-0.052-0.01-0.086
			c0.003,0.025,0.006,0.049,0.01,0.073C247.202,132.16,247.202,132.155,247.202,132.151z M238.32,123.341
			c0.038-0.365,0.088-0.773,0.545-0.815c0.345-0.032,0.515,0.281,0.64,0.562c0.247,0.556,0.493,1.114,0.715,1.68
			c1.825,4.648,3.866,9.205,5.895,13.765c1.14,2.56,2.459,5.032,3.936,7.416c0.547,0.882,1.053,1.79,1.298,2.807
			c0.242,1.004-0.116,1.952-0.891,2.383c-0.848,0.472-1.656,0.283-2.388-0.27c-0.845-0.639-1.377-1.54-1.885-2.441
			c-2.465-4.372-4.17-9.062-5.67-13.829c-0.988-3.14-1.698-6.349-2.089-9.623c-0.043-0.362-0.088-0.724-0.111-0.911
			C238.317,123.706,238.301,123.522,238.32,123.341z M229.492,116.754c0.019-0.419,0.05-0.861,0.196-1.246
			c0.164-0.433,0.579-0.491,0.843-0.118c0.275,0.387,0.454,0.857,0.609,1.313c3.112,9.178,6.77,18.126,11.183,26.76
			c0.525,1.028,1.026,2.076,1.126,3.163c0.005,1.732-1.414,2.645-2.887,1.946c-0.679-0.322-1.21-0.829-1.603-1.455
			c-0.648-1.029-1.358-2.036-1.864-3.135c-3.14-6.816-5.884-13.773-7.072-21.237C229.706,120.765,229.401,118.773,229.492,116.754z
			 M228.002,141.453c-2.197-5.621-3.85-11.416-5.534-17.203c-1.945-6.683-3.2-13.497-3.865-20.419
			c-0.128-1.326-0.018-2.675-0.018-4.014c-0.038,0-0.077,0-0.115,0c0-1.278-0.01-2.556,0.007-3.834
			c0.004-0.294,0.044-0.649,0.441-0.686c0.376-0.035,0.523,0.279,0.598,0.567c0.229,0.883,0.453,1.769,0.629,2.663
			c1.85,9.409,4.981,18.44,8.105,27.473c1.593,4.607,3.639,9.032,5.442,13.555c0.316,0.791,0.663,1.573,0.78,2.428
			c0.192,1.405-0.426,2.575-1.656,3.141c-1.193,0.55-2.535,0.214-3.425-0.906C228.739,143.398,228.379,142.417,228.002,141.453z
			 M276.891,154.152c-0.208,0.296-0.477,0.552-0.729,0.815c-2.947,3.069-6.555,5.017-10.626,6.103
			c-3.718,0.992-7.543,1.272-11.622,1.488c-8.252-0.478-15.78-3.257-21.92-9.336c-0.913-0.904-1.711-1.898-2.289-3.053
			c-0.273-0.546-0.534-1.106-0.544-1.727c-0.021-1.261,0.877-1.913,2.05-1.491c0.34,0.122,0.651,0.327,0.971,0.501
			c9.615,5.214,19.873,7.454,30.777,6.527c3.75-0.319,7.512-0.586,11.225-1.267c0.652-0.12,1.336-0.144,2-0.112
			C277.295,152.654,277.544,153.226,276.891,154.152z"/>
		<path style="fill:#FFFFFF;" d="M271.5,432.175c1.065-0.527,1.739-1.488,2.51-2.342C273.239,430.687,272.564,431.648,271.5,432.175
			z"/>
		<g>
			<path d="M374.026,257.417c-0.934-8.528-3.58-16.519-7.512-24.103c-3.317-6.396-7.57-12.218-11.589-18.158
				c-5.149-7.609-11.743-13.955-18.964-19.646c-4.745-3.739-9.848-6.957-14.789-10.409c-3.3-2.306-6.554-4.692-9.361-7.578
				c-3.991-4.103-7.841-8.342-11.476-12.771c-3.766-4.588-6.994-9.486-9.422-14.939c-4.205-9.444-6.422-19.4-7.911-29.55
				c-1.052-7.171-2.143-14.33-3.722-21.408c-2.108-9.448-4.2-18.9-6.294-28.351c-1.586-7.16-3.685-14.142-7.121-20.665
				c-1.943-3.688-4.271-7.112-7.263-10.021c-4.157-4.041-9.273-5.947-14.986-6.359c-4.9-0.354-9.478,0.595-13.438,3.656
				c-3.491,2.698-6.547,5.826-8.983,9.531c-2.527,3.843-4.329,8.032-5.909,12.329c-3.457,9.402-6.282,18.955-7.118,29.004
				c-0.583,7.008-0.476,13.99,0.635,20.942c1.3,8.138,3.368,16.087,5.968,23.902c3.404,10.233,6.904,20.43,11.766,30.09
				c0.91,1.808,1.618,3.674,2.16,5.614c2.077,7.45,4.147,14.901,6.24,22.346c0.939,3.342,1.941,6.666,2.885,10.006
				c0.323,1.143,0.272,1.122-0.853,1.468c-0.987,0.303-1.969,0.642-2.917,1.048c-2.967,1.271-5.899,2.623-8.877,3.867
				c-4.773,1.993-9.436,4.244-14.423,5.724c-6.312,1.874-12.704,3.362-19.178,4.552c-6.709,1.234-13.46,2.22-20.23,2.94
				c-6.907,0.735-13.561,2.222-19.95,4.922c-5.457,2.307-10.337,5.432-14.25,9.958c-2.365,2.736-4.216,5.816-6.061,8.898
				c-4.166,6.961-6.128,14.543-6.159,22.624c-0.019,5.026,0.985,9.925,2.117,14.794c1.04,4.478,2.729,8.713,5.034,12.682
				c0.699,1.204,1.134,2.433,1.194,3.778c0.169,3.838,0.128,7.679-0.484,11.479c-0.677,4.206-1.432,8.393-1.88,12.639
				c-0.603,5.717-0.268,11.289,1.628,16.75c2.566,7.391,6.264,14.124,11.455,20.001c0.665,0.752,1.106,1.57,1.415,2.514
				c0.914,2.792,0.84,5.652,0.583,8.506c-0.384,4.269-0.458,8.531,0.477,12.727c0.927,4.158,1.941,8.304,3.118,12.398
				c1.231,4.282,3.516,8.012,6.654,11.194c0.606,0.614,1.144,1.25,1.425,2.089c0.562,1.676,1.018,3.369,1.313,5.121
				c0.48,2.853,0.264,5.716,0.259,8.571c-0.009,4.924,1.211,9.505,3.402,13.881c1.736,3.466,4.244,6.374,6.57,9.424
				c3.299,4.327,7.577,6.938,12.943,7.846c2.397,0.405,4.817,0.692,7.167,1.377c2.281,0.665,4.607,1.125,6.999,1.227
				c1.823,0.078,3.669,0.108,5.456,0.429c4.372,0.785,8.716,1.73,13.073,2.603c4.955,0.993,9.824,2.353,14.754,3.442
				c6.298,1.392,12.648,2.547,18.975,3.81c2.218,0.443,4.411,0.572,6.7,0.33c7.461-0.789,13.975-3.586,19.545-8.606
				c0.859-0.774,1.771-1.487,2.519-2.382c2.148-2.572,4.333-5.118,6.027-8.026c0.489-0.838,1.113-1.176,2.074-1.165
				c2.375,0.027,4.743-0.076,7.107-0.384c6.047-0.788,11.826-2.366,16.995-5.718c2.145-1.391,4.226-2.882,6.303-4.374
				c10.825-7.777,19.682-17.413,26.729-28.691c3.712-5.941,6.992-12.14,10.013-18.463c4.857-10.168,7.456-20.957,8.647-32.122
				c0.478-4.486,0.631-8.982,0.76-13.488c0.075-2.596,0.051-5.276,1.226-7.7c3.768-7.774,6.435-15.905,8.068-24.385
				c2.19-11.377,3.895-22.805,3.788-35.391C375.091,270.155,374.722,263.778,374.026,257.417z M364.139,311.157
				c-1.611,7.841-4.063,15.415-7.491,22.671c-2.999,6.348-6.466,12.429-10.279,18.309c-3.255,5.018-6.043,10.291-8.84,15.564
				c-0.114,0.215-0.226,0.433-0.311,0.66c-0.134,0.356-0.2,0.736,0.152,0.997c0.26,0.193,0.582,0.15,0.871,0.017
				c0.95-0.435,1.768-1.067,2.571-1.725c2.942-2.408,5.442-5.232,7.698-8.272c1.452-1.955,2.806-3.983,4.208-5.975
				c0.338-0.48,0.589-1.039,1.086-1.399c0.481,0.407,0.286,0.857,0.223,1.237c-1.256,7.574-2.676,15.111-5.177,22.399
				c-2.125,6.191-5.125,11.98-8.197,17.727c-3.651,6.829-7.629,13.458-12.451,19.549c-2.308,2.916-4.61,5.858-7.316,8.396
				c-3.24,3.039-6.736,5.796-10.359,8.387c-3.827,2.737-7.736,5.296-12.195,6.918c-2.812,1.023-5.723,1.568-8.593,2.103
				c-0.383-0.515-0.048-0.786,0.155-1.055c1.21-1.604,2.442-3.182,3.794-4.678c3.397-3.758,4.889-8.205,4.382-13.271
				c-0.212-2.118-0.438-4.239-0.77-6.341c-0.51-3.228-2.225-5.645-5.221-7.018c-1.468-0.673-1.515-0.847-0.641-2.289
				c2.884-4.758,6.316-9.087,10.068-13.194c2.541-2.783,4.995-5.658,6.855-8.988c2.559-4.581,3.186-9.262,1.118-14.201
				c-0.517-1.236-1.023-2.474-1.593-3.687c-0.363-0.772-0.17-1.031,0.641-0.955c0.969,0.091,1.938,0.193,2.898,0.349
				c3.03,0.49,6.077,0.282,9.119,0.246c0.613-0.007,1.225-0.101,1.78-0.363c0.63-0.298,0.704-0.87,0.137-1.296
				c-0.43-0.323-0.946-0.548-1.449-0.757c-4.725-1.96-9.456-3.906-14.185-5.856c-0.88-0.363-1.739-0.751-2.515-1.876
				c2.035,0.742,3.731,1.371,5.435,1.978c2.65,0.945,5.373,1.564,8.173,1.863c1.418,0.151,2.798,0.006,4.155-0.388
				c0.397-0.115,0.887-0.248,0.916-0.766c0.03-0.537-0.453-0.652-0.85-0.799c-6.242-2.315-11.948-5.765-17.985-8.515
				c-0.995-0.453-1.939-1.023-2.902-1.546c-0.421-0.229-0.961-0.412-0.645-1.073c0.286-0.597,0.672-1.029,1.432-0.722
				c0.79,0.32,1.588,0.621,2.379,0.937c2.951,1.177,5.993,2.036,9.116,2.619c0.966,0.181,1.941,0.253,2.909,0.124
				c0.738-0.099,0.907-0.632,0.39-1.148c-0.297-0.297-0.668-0.529-1.029-0.751c-3.424-2.103-6.782-4.321-10.466-5.973
				c-1.267-0.568-1.301-0.654-0.582-1.901c2.619-4.542,2.983-9.329,1.599-14.301c-0.981-3.525-2.061-7.014-4.192-10.07
				c-2.774-3.978-6.392-6.814-11.036-8.296c-0.516-0.165-1.082-0.213-1.597-0.692c0.3-0.844,0.967-1.468,1.581-2.101
				c2.164-2.229,4.378-4.409,6.533-6.647c1.994-2.071,3.69-4.375,5.106-6.879c3.027-5.351,3.447-11.048,2.41-17
				c-0.674-3.871-2.539-6.876-5.628-9.276c-4.018-3.121-8.557-4.77-13.556-5.431c-7.071-0.934-13.823,0.222-20.388,2.826
				c-0.283,0.112-0.57,0.216-0.858,0.314c-0.556,0.189-0.976,0.038-1.138-0.549c-0.404-1.462-0.851-2.888-0.293-4.458
				c0.979-2.753,1.859-5.541,2.716-8.335c0.195-0.634,0.795-1.574-0.031-1.964c-0.805-0.38-1.175,0.651-1.564,1.208
				c-3.421,4.892-6.828,9.791-9.995,14.856c-1.548,2.477-3.288,4.834-4.897,7.274c-0.783,1.187-1.834,1.665-3.232,1.67
				c-4.251,0.017-7.977-1.457-11.368-3.904c-1.171-0.845-1.867-2.043-2.429-3.359c-1.653-3.87-2.897-7.888-4.37-11.823
				c-1.216-3.25-2.376-6.526-3.971-9.62c-0.558-1.084-1.186-2.13-2.049-3.01c-0.226-0.231-0.532-0.395-0.803-0.178
				c-0.151,0.121-0.215,0.436-0.203,0.658c0.019,0.36,0.123,0.717,0.208,1.071c1.649,6.845,2.109,13.824,2.349,20.828
				c0.008,0.243,0.015,0.488-0.005,0.731c-0.079,0.964-0.268,1.113-1.116,0.666c-2.054-1.083-4.178-1.985-6.39-2.687
				c-4.199-1.333-8.543-1.928-12.881-2.554c-4.459-0.644-8.934-1.221-13.443-1.225c-5.418-0.005-10.836,0.153-16.253,0.265
				c-0.584,0.012-1.359-0.012-1.478,0.763c-0.13,0.846,0.621,1.145,1.257,1.314c0.878,0.235,1.79,0.437,2.694,0.465
				c4.631,0.142,9.028,1.299,13.296,2.999c10.648,4.241,21.029,9.068,31.08,14.573c5.682,3.112,10.731,7.164,15.763,11.217
				c1.042,0.839,2.123,1.635,3.23,2.388c0.915,0.622,1.942,1.022,3.069,1.067c1.839,0.074,2.73-0.923,2.39-2.749
				c-0.121-0.648-0.367-1.294-0.671-1.882c-0.365-0.706-0.266-1.245,0.257-1.813c4.787-5.202,9.563-10.391,15.609-14.239
				c4.886-3.109,10.01-5.541,15.742-6.558c4.232-0.751,8.483-0.837,12.721-0.091c3.654,0.643,6.797,2.398,9.354,5.025
				c2.399,2.465,3.108,5.633,2.678,8.968c-0.564,4.374-2.899,7.961-5.482,11.396c-1.617,2.15-3.608,3.956-5.44,5.91
				c-5.954,6.35-12.14,12.499-17.194,19.64c-1.303,1.842-2.578,3.696-3.614,5.706c-0.953,1.848-2.112,3.557-3.494,5.118
				c-1.173,1.325-2.149,2.801-3.138,4.266c-2.673,3.961-5.937,7.219-10.451,9.103c-1.949,0.814-3.924,1.256-6.014,1.335
				c-6.585,0.248-12.965-0.9-19.259-2.729c-10.656-3.098-21.101-6.789-31.315-11.121c-5.075-2.153-10.4-3.433-15.715-4.762
				c-4.191-1.048-8.357-2.229-12.666-2.729c-2.248-0.261-4.498-0.252-6.737,0.127c-0.299,0.051-0.622,0.083-0.749,0.42
				c-0.16,0.424,0.091,0.708,0.405,0.912c0.458,0.299,0.93,0.581,1.42,0.823c2.186,1.082,4.409,2.115,6.74,2.81
				c12.815,3.822,25.024,9.189,37.299,14.407c8.71,3.703,17.727,6.527,27.074,8.09c6.261,1.047,10.209,1.425,18.962-0.816
				c0.277,0.156,0.185,0.392,0.153,0.63c-0.228,1.668,0.618,2.414,2.2,1.935c0.898-0.272,1.639-0.811,2.286-1.465
				c1.584-1.603,3.194-3.184,4.707-4.851c4.261-4.693,8.674-9.226,13.436-13.419c2.467-2.172,4.835-4.459,7.225-6.718
				c0.416-0.394,1.161-0.875,0.762-1.475c-0.401-0.604-1.119-0.088-1.656,0.132c-1.524,0.623-2.986,1.375-4.408,2.206
				c-0.405,0.237-0.782,0.548-1.385,0.611c0.023-0.747,0.491-1.174,0.834-1.63c2.821-3.748,5.741-7.418,8.747-11.018
				c1.285-1.538,1.545-1.544,3.421-0.629c5.551,2.706,9.389,6.842,10.958,12.935c0.501,1.944,1.12,3.857,1.574,5.817
				c0.302,1.305,0.169,2.532-0.253,3.765c-0.517,1.509-1.279,2.895-2.129,4.235c-4.994,7.87-9.808,15.839-14.163,24.092
				c-2.044,3.873-4.33,7.615-6.113,11.632c-0.718,1.618-1.776,3.06-3.024,4.326c-3.258,3.307-6.759,6.299-10.772,8.698
				c-5.751,3.438-11.802,4.479-18.42,3.264c-7.803-1.433-15.374-3.756-23.081-5.549c-8.777-2.042-17.427-4.595-26.231-6.535
				c-7.087-1.562-14.216-2.773-21.504-2.827c-1.456-0.011-2.91-0.236-4.366-0.341c-0.485-0.035-0.975-0.02-1.461,0.001
				c-0.432,0.019-0.907,0.071-0.993,0.6c-0.08,0.494,0.301,0.769,0.682,0.98c0.318,0.176,0.657,0.319,0.995,0.457
				c1.019,0.418,2.08,0.684,3.161,0.883c7.93,1.459,15.585,3.893,23.189,6.513c7.657,2.639,15.185,5.659,22.995,7.837
				c5.982,1.668,11.952,3.396,18.042,4.642c3.526,0.721,7.115,0.971,10.692,1.276c3.526,0.3,6.897-0.561,10.228-1.58
				c1.568-0.48,3.113-1.033,4.682-1.558c0.397,0.543-0.068,0.83-0.289,1.126c-0.953,1.271-1.769,2.627-2.547,4.007
				c-0.238,0.421-0.438,0.875-0.575,1.338c-0.2,0.672-0.197,1.352,0.416,1.837c0.614,0.486,1.262,0.323,1.882-0.021
				c0.861-0.478,1.575-1.141,2.282-1.815c2.605-2.483,4.947-5.213,7.344-7.889c4.183-4.673,8.448-9.279,12.195-14.324
				c0.581-0.782,1.168-1.561,1.72-2.363c0.232-0.337,0.562-0.724,0.243-1.157c-0.339-0.46-0.768-0.163-1.162-0.038
				c-0.223,0.071-0.432,0.229-0.822,0.028c0.64-2.619,1.515-5.186,2.966-7.515c0.933-1.497,2.046-2.881,3.011-4.359
				c0.615-0.943,1.411-1.266,2.482-1.094c2.756,0.443,5.275,1.294,7.292,3.414c1.75,1.84,3.147,3.804,3.994,6.237
				c1.13,3.244,0.741,6.225-0.977,9.108c-1.251,2.1-2.781,3.997-4.322,5.887c-3.232,3.963-6.685,7.752-9.456,12.078
				c-2.465,3.849-4.876,7.717-6.65,11.96c-1.245,2.979-2.791,5.819-4.56,8.531c-0.804,1.233-1.676,2.405-2.82,3.335
				c-1.521,1.235-2.733,2.771-4.121,4.131c-2.753,2.697-6.003,4.552-9.779,5.41c-2.376,0.54-4.729,0.087-7.066-0.32
				c-5.235-0.911-10.253-2.642-15.338-4.119c-4.797-1.393-9.619-2.71-14.512-3.695c-7.752-1.561-15.485-3.245-23.327-4.329
				c-4.898-0.677-9.819-0.917-14.758-0.695c-0.691,0.031-1.731-0.138-1.876,0.707c-0.186,1.082,0.952,1.059,1.663,1.244
				c5.537,1.439,11.142,2.648,16.609,4.314c12.176,3.711,24.493,6.919,36.703,10.507c5.967,1.754,12.054,2.974,18.296,3.242
				c0.778,0.033,1.559,0.005,2.35,0.005c0.253,0.515-0.204,0.763-0.438,1.074c-0.624,0.827-1.29,1.627-1.708,2.584
				c-0.257,0.588-0.325,1.201,0.26,1.66c0.514,0.404,1.055,0.24,1.525-0.084c0.448-0.308,0.871-0.666,1.26-1.047
				c1.045-1.023,2.155-1.996,3.078-3.121c2.306-2.808,5.378-4.508,8.518-6.134c0,0,0,0,0,0c-0.144,0.195-0.266,0.413-0.437,0.581
				c-1.987,1.968-4.016,3.896-5.747,6.104c-1.617,2.062-3.16,4.172-4.092,6.652c-0.261,0.695-0.449,1.439,0.216,2.03
				c0.701,0.623,1.47,0.436,2.211,0.061c0.984-0.498,1.827-1.192,2.654-1.915c5.412-4.732,10.268-10.017,15.148-15.274
				c1.781-1.919,3.282-4.07,4.586-6.345c0.253-0.441,0.704-0.965,0.184-1.483c-0.432-0.431-0.915-0.053-1.355,0.099
				c-0.285,0.099-0.55,0.257-0.822,0.393c-2.62,1.314-5.033,2.948-7.326,4.765c-0.473,0.374-0.878,0.854-1.506,0.993
				c2.358-3.026,5.171-5.664,7.392-8.814c1.866-2.647,3.641-5.325,4.923-8.314c0.294-0.685,0.452-1.665,1.45-1.67
				c0.873-0.004,1.422,0.698,1.797,1.396c1.833,3.412,2.747,7.031,2.015,10.901c-0.36,1.903-1.498,3.489-2.804,4.852
				c-4.682,4.886-8.035,10.701-11.599,16.368c-2.347,3.732-4.868,7.344-8.318,10.115c-6.013,4.829-12.834,6.945-20.619,5.92
				c-6.279-0.827-12.567-1.591-18.718-3.104c-5.142-1.265-10.239-2.714-15.452-3.677c-7.72-1.426-15.476-2.595-23.255-3.672
				c-3.931-0.544-7.859-1.676-11.551-3.315c-1.395-0.619-2.631-1.532-3.738-2.596c-5.344-5.141-8.904-11.245-9.906-18.674
				c-0.39-2.893-0.594-5.811-0.874-8.718c-0.097-1.011-0.545-1.983-0.4-3.153c1.386,0.144,2.642,0.728,3.983,0.609
				c0.7-0.062,1.597,0.248,1.974-0.564c0.37-0.796-0.351-1.35-0.814-1.883c-1.557-1.793-3.139-3.555-4.941-5.123
				c-6.024-5.243-9.596-11.78-10.825-19.737c-0.865-5.601-1.416-11.23-2.132-16.844c-0.169-1.323-0.416-2.637-0.624-3.937
				c0.405-0.453,0.828-0.19,1.194-0.054c1.333,0.493,2.728,0.605,4.121,0.749c0.679,0.071,1.346,0.011,1.977-0.235
				c0.547-0.214,0.698-0.648,0.462-1.189c-0.224-0.515-0.636-0.887-1.02-1.277c-1.54-1.566-3.201-3-4.903-4.381
				c-2.195-1.781-4.077-3.831-5.657-6.172c-2.285-3.384-4.429-6.856-6.505-10.37c-1.584-2.683-2.144-5.684-2.567-8.705
				c-0.576-4.12-0.351-8.249-0.165-12.393c0.196-4.382,0.962-8.718,0.904-13.115c-0.022-1.693-0.162-3.378-0.337-5.282
				c1.209,0.578,2.215,1.102,3.257,1.54c0.653,0.275,1.458,0.739,2.038,0.089c0.587-0.659-0.007-1.393-0.344-2.008
				c-0.847-1.548-1.707-3.088-2.75-4.524c-1.834-2.525-3.244-5.274-4.384-8.189c-2.638-6.74-4.25-13.724-5.068-20.89
				c-0.917-8.034,0.13-15.703,4.792-22.557c3.412-5.016,7.706-9.113,13.156-11.857c6.418-3.233,13.23-5.223,20.362-6.118
				c12.566-1.577,25.118-3.212,37.405-6.44c5.963-1.567,11.8-3.421,17.398-6.04c4.472-2.092,9.188-3.585,13.828-5.259
				c1.391-0.502,1.455-0.452,1.898,1.024c1.156,3.85,2.26,7.715,3.425,11.561c1.008,3.329,2.357,6.529,3.878,9.654
				c0.318,0.653,0.686,1.302,1.143,1.862c0.63,0.773,1.319,0.642,1.591-0.338c0.275-0.99,0.45-2.028,0.506-3.054
				c0.222-4.03,0.007-8.032-0.871-11.988c-0.644-2.901-1.241-5.813-1.635-8.87c0.636,0.766,1.283,1.524,1.907,2.301
				c1.224,1.524,2.575,2.928,4.027,4.232c0.496,0.446,1.053,0.826,1.593,1.221c0.254,0.186,0.578,0.313,0.849,0.12
				c0.381-0.271,0.218-0.647,0.048-0.979c-0.111-0.216-0.239-0.425-0.378-0.625c-3.261-4.727-5.737-9.904-8.522-14.903
				c-1.186-2.128-2.341-4.273-3.537-6.395c-0.96-1.703-1.751-3.468-2.388-5.323c-3.438-10.023-6.755-20.092-10.806-29.893
				c-1.023-2.476-2.088-4.937-3.199-7.375c-1.245-2.732-1.957-5.635-2.813-8.49c-3.08-10.27-5.93-20.601-7.984-31.134
				c-1.086-5.567-1.63-11.183-1.844-16.862c-0.547-14.513,2.607-28.294,7.847-41.693c1.621-4.145,3.878-7.819,7.631-10.47
				c3.193-2.256,6.604-3.305,10.489-2.725c1.022,0.153,2.054,0.204,3.078,0.386c3.794,0.674,6.731,2.68,9.139,5.604
				c2.852,3.464,4.942,7.381,6.849,11.406c4.69,9.897,8.256,20.176,10.277,30.954c1.772,9.455,3.444,18.928,4.618,28.481
				c1.525,12.407,4.594,24.401,9.638,35.863c1.354,3.076,2.889,6.062,4.94,8.728c5.051,6.564,10.084,13.141,15.721,19.232
				c3.702,4,7.818,7.505,12.231,10.669c6.388,4.579,12.705,9.25,18.776,14.244c5.287,4.349,10.123,9.155,14.191,14.678
				c2.898,3.935,5.217,8.23,7.365,12.607c3.182,6.481,5.58,13.236,6.842,20.37c0.595,3.362,0.939,6.756,1.195,10.152
				c0.362,4.794,0.85,9.576,0.956,14.394C367.98,290.078,366.299,300.645,364.139,311.157z M274.01,429.833
				c-0.771,0.854-1.446,1.815-2.51,2.342C272.564,431.648,273.239,430.687,274.01,429.833z"/>
			<path d="M276.183,152.601c-0.664-0.032-1.347-0.008-2,0.112c-3.713,0.681-7.475,0.948-11.225,1.267
				c-10.903,0.927-21.162-1.313-30.777-6.527c-0.32-0.174-0.631-0.378-0.971-0.501c-1.173-0.423-2.071,0.23-2.05,1.491
				c0.01,0.621,0.271,1.181,0.544,1.727c0.578,1.155,1.377,2.149,2.289,3.053c6.139,6.08,13.668,8.858,21.92,9.336
				c4.08-0.216,7.905-0.497,11.622-1.488c4.071-1.086,7.679-3.034,10.626-6.103c0.253-0.263,0.521-0.519,0.729-0.815
				C277.544,153.226,277.295,152.654,276.183,152.601z"/>
			<path d="M232.815,145.124c1.23-0.567,1.847-1.736,1.656-3.141c-0.117-0.855-0.464-1.637-0.78-2.428
				c-1.803-4.522-3.849-8.947-5.442-13.555c-3.124-9.033-6.255-18.064-8.105-27.473c-0.176-0.895-0.4-1.78-0.629-2.663
				c-0.075-0.288-0.222-0.603-0.598-0.567c-0.397,0.037-0.437,0.392-0.441,0.686c-0.017,1.278-0.007,2.556-0.007,3.834
				c0.038,0,0.077,0,0.115,0c0,1.339-0.109,2.688,0.018,4.014c0.665,6.922,1.92,13.736,3.865,20.419
				c1.684,5.786,3.337,11.582,5.534,17.203c0.377,0.963,0.736,1.945,1.388,2.765C230.281,145.338,231.622,145.674,232.815,145.124z"
				/>
			<path d="M263.534,409.554c0.698-0.401,1.208-1.008,1.716-1.62c5.054-6.084,10.005-12.254,15.288-18.147
				c3.129-3.49,6.06-7.148,8.86-10.907c0.544-0.731,1.046-1.495,1.538-2.263c0.162-0.254,0.242-0.582-0.021-0.839
				c-0.254-0.248-0.57-0.18-0.848-0.049c-0.439,0.208-0.876,0.428-1.285,0.688c-1.801,1.142-3.519,2.396-5.169,3.749
				c-5.573,4.568-10.4,9.894-15.323,15.115c-2.592,2.748-4.839,5.788-6.671,9.112c-0.593,1.076-1.055,2.192-1.107,3.286
				C260.533,409.611,261.987,410.444,263.534,409.554z"/>
			<path d="M268.473,346.841c-2.337,2.732-4.548,5.556-6.232,8.757c-1.199,2.278-2.13,4.64-2.442,7.013
				c-0.018,0.943-0.064,1.742,0.741,2.109c0.876,0.4,1.518-0.141,2.065-0.749c0.406-0.451,0.765-0.946,1.133-1.43
				c1.989-2.616,3.917-5.28,5.972-7.843c5.215-6.503,10.488-12.96,15.732-19.441c0.574-0.709,1.11-1.449,1.649-2.185
				c0.217-0.297,0.43-0.651,0.179-1.001c-0.328-0.458-0.777-0.246-1.15-0.057c-0.705,0.356-1.403,0.731-2.072,1.149
				C278.109,336.871,273.009,341.538,268.473,346.841z"/>
			<path d="M161.142,383.997c-1.015-0.156-1.98-0.034-2.61,0.88c-0.575,0.835-0.501,1.762,0.02,2.582
				c0.461,0.725,0.667,1.346,0.18,2.169c-0.347,0.586,0.057,1.173,0.425,1.671c0.512,0.691,1.176,1.225,1.857,1.739
				c5.456,4.117,11.299,7.588,17.475,10.506c1.713,0.809,3.511,1.36,5.384,1.662c0.483,0.078,0.967,0.145,1.447,0.016
				c0.627-0.167,0.763-0.625,0.296-1.054c-0.265-0.243-0.595-0.418-0.903-0.611c-3.761-2.355-7.525-4.707-11.285-7.063
				c-0.747-0.468-1.484-0.951-2.226-1.427c0.047-0.087,0.094-0.175,0.141-0.262c1.148,0.342,2.283,0.745,3.45,1.003
				c0.642,0.142,1.521,0.757,1.952-0.168c0.343-0.736-0.491-1.163-0.959-1.584c-3.85-3.466-7.928-6.626-12.461-9.166
				C162.635,384.504,161.937,384.119,161.142,383.997z"/>
			<path d="M164.383,355.912c-5.148-3.025-10.104-6.322-14.563-10.32c-0.317-0.284-0.642-0.564-0.992-0.803
				c-1.103-0.752-2.005-0.769-2.853-0.083c-0.86,0.696-1.033,1.764-0.468,2.978c0.417,0.897,1.08,1.612,1.756,2.315
				c2.117,2.204,4.501,4.089,7.02,5.801c5.295,3.598,10.749,6.902,16.926,8.81c2.27,0.701,4.568,1.274,7.348,1.309
				c0.287-0.022,0.953-0.064,1.616-0.13c0.264-0.026,0.454-0.215,0.498-0.462c0.045-0.256-0.115-0.479-0.335-0.599
				c-0.479-0.262-0.965-0.516-1.466-0.734c-1.451-0.631-2.888-1.285-4.255-2.089C171.209,359.899,167.791,357.914,164.383,355.912z"
				/>
			<path d="M257.542,355.834c1.118,0.289,1.667-0.474,2.183-1.257c0.368-0.559,0.72-1.129,1.085-1.691
				c3.606-5.534,8.118-10.329,12.482-15.241c2.832-3.187,5.582-6.438,8.142-9.847c0.583-0.776,1.087-1.615,1.597-2.443
				c0.188-0.305,0.35-0.676,0.063-1.014c-0.299-0.353-0.671-0.211-0.996-0.043c-0.54,0.279-1.086,0.558-1.586,0.901
				c-1.304,0.895-2.605,1.799-3.872,2.747c-4.858,3.637-8.898,8.108-12.838,12.675c-2.23,2.584-4.33,5.269-6,8.26
				c-0.775,1.387-1.423,2.827-1.606,4.253C256.116,354.615,256.622,355.596,257.542,355.834z"/>
			<path d="M262.797,303.517c-2.757,3.33-5.426,6.732-7.33,10.654c-0.533,1.097-1.018,2.212-1.132,3.267
				c-0.074,1.077,0.057,1.896,0.958,2.358c0.779,0.399,1.625,0.175,2.441-0.687c0.374-0.395,0.682-0.855,0.992-1.305
				c1.382-2.004,2.707-4.048,4.138-6.016c4.548-6.256,9.705-12.026,14.491-18.093c0.678-0.86,1.38-1.702,2.02-2.59
				c0.293-0.407,0.853-0.884,0.333-1.422c-0.43-0.445-0.912-0.015-1.317,0.216c-0.74,0.422-1.471,0.862-2.18,1.333
				C271.1,294.625,266.699,298.806,262.797,303.517z"/>
			<path d="M251.2,305.322c0.743-0.345,1.251-0.97,1.704-1.618c4.193-5.991,9.538-10.877,15.008-15.641
				c2.618-2.28,5.21-4.586,7.549-7.157c0.612-0.672,1.197-1.387,1.675-2.156c0.43-0.694,0.052-1.189-0.774-1.083
				c-0.858,0.11-1.622,0.514-2.375,0.911c-7.804,4.115-14.375,9.747-20.105,16.402c-1.596,1.854-2.922,3.895-3.932,6.13
				c-0.401,0.889-0.748,1.799-0.934,2.762C248.921,305.166,249.989,305.884,251.2,305.322z"/>
			<path d="M169.144,310.557c-0.183-0.159-0.383-0.298-0.582-0.439c-3.274-2.318-6.541-4.646-9.826-6.95
				c-5.624-3.944-11.254-7.882-16.558-12.259c-0.325-0.269-0.67-0.536-1.048-0.714c-0.596-0.28-1.201-0.206-1.701,0.242
				c-0.493,0.442-0.689,1.02-0.45,1.651c0.192,0.507,0.429,1.016,0.742,1.455c1.097,1.538,2.341,2.946,3.779,4.185
				c2.536,2.185,5.167,4.25,7.945,6.112c3.887,2.605,7.744,5.276,12.19,6.897c1.374,0.501,2.769,0.915,4.226,1.03
				c0.316-0.021,0.621-0.022,0.921-0.066c0.309-0.046,0.595-0.178,0.663-0.52C169.499,310.92,169.33,310.718,169.144,310.557z"/>
			<path d="M282.933,391.706c-0.626,0.371-1.217,0.803-1.809,1.228c-5.238,3.762-9.52,8.463-13.385,13.581
				c-1.834,2.429-3.634,4.875-4.884,7.674c-0.572,1.279-1.052,2.589-1.225,3.815c-0.031,0.744,0.059,1.272,0.571,1.624
				c0.594,0.408,1.166,0.221,1.705-0.111c0.736-0.453,1.277-1.114,1.823-1.769c2.298-2.76,4.241-5.782,6.391-8.652
				c3.426-4.572,6.853-9.143,10.269-13.723c0.617-0.828,1.203-1.681,1.76-2.55c0.278-0.434,0.779-0.968,0.253-1.448
				C283.894,390.911,283.378,391.442,282.933,391.706z"/>
			<path d="M175.04,434.481c-0.948-0.2-1.833-0.023-2.432,0.835c-0.502,0.718-0.409,1.609,0.3,2.53
				c0.33,0.427,0.747,0.797,1.165,1.145c1.173,0.977,2.464,1.779,3.826,2.467c5.062,2.557,10.336,4.585,15.744,6.267
				c1.686,0.524,3.426,0.841,5.212,0.784c1.027-0.023,2.082,0.114,3.04-0.398c0.673-0.36,0.718-0.779,0.153-1.27
				c-0.182-0.158-0.396-0.286-0.611-0.395c-2.174-1.09-4.307-2.273-6.535-3.237c-6.083-2.632-12.195-5.199-18.153-8.11
				C176.206,434.833,175.627,434.605,175.04,434.481z"/>
			<path d="M281.708,347.79c0.289-0.385,0.558-0.808,0.724-1.256c0.213-0.574-0.18-0.976-0.775-0.805
				c-0.769,0.22-1.417,0.695-2.066,1.145c-3.969,2.749-7.606,5.87-10.616,9.667c-2.421,3.054-4.744,6.177-6.171,9.857
				c-0.354,0.913-0.6,1.849-0.69,2.779c0.001,1.159,0.553,2.117,1.373,2.428c0.869,0.329,1.739,0.021,2.533-0.959
				c0.42-0.518,0.792-1.079,1.155-1.64C271.837,361.809,276.551,354.648,281.708,347.79z"/>
			<path d="M237.094,143.982c0.506,1.099,1.216,2.106,1.864,3.135c0.394,0.626,0.924,1.133,1.603,1.455
				c1.474,0.699,2.893-0.214,2.887-1.946c-0.1-1.086-0.601-2.134-1.126-3.163c-4.413-8.634-8.071-17.583-11.183-26.76
				c-0.155-0.456-0.334-0.926-0.609-1.313c-0.265-0.372-0.679-0.315-0.843,0.118c-0.146,0.385-0.177,0.826-0.196,1.246
				c-0.09,2.019,0.215,4.011,0.53,5.991C231.21,130.21,233.953,137.167,237.094,143.982z"/>
			<path d="M276.178,284.142c-1.583,0.91-3.181,1.791-4.673,2.858c-5.654,4.041-10.348,9.048-14.628,14.472
				c-1.475,1.87-2.757,3.869-3.704,6.066c-0.338,0.784-0.657,1.576-0.684,2.329c-0.008,0.912,0.258,1.565,1.023,1.899
				c0.833,0.364,1.571,0.13,2.137-0.531c0.393-0.459,0.723-0.98,1.03-1.504c2.013-3.424,4.362-6.607,6.942-9.619
				c4.121-4.812,8.334-9.54,12.837-14.002c0.474-0.47,0.915-0.978,1.34-1.493c0.193-0.234,0.316-0.534,0.055-0.819
				c-0.192-0.21-0.443-0.185-0.675-0.097C276.838,283.829,276.493,283.961,276.178,284.142z"/>
			<path d="M165.526,397.108c-0.8-0.556-1.634-1.068-2.663-1.076c-1.795-0.019-2.88,1.494-2.301,3.241
				c0.596,1.797,2.043,2.83,3.532,3.792c7.105,4.586,14.826,7.792,22.909,10.179c0.465,0.137,0.945,0.226,1.421,0.325
				c0.257,0.053,0.482-0.029,0.618-0.262c0.148-0.254,0.034-0.505-0.148-0.653c-0.423-0.343-0.869-0.664-1.333-0.949
				c-4.867-2.992-9.716-6.013-14.419-9.26C170.59,400.682,168.071,398.876,165.526,397.108z"/>
			<path d="M171.382,423.565c-0.436,0.824-0.229,1.726,0.586,2.661c0.656,0.753,1.555,1.151,2.677,1.829
				c-1.256,0.217-2.169,0.538-2.304,1.74c-0.126,1.123,0.554,1.82,1.389,2.384c0.451,0.304,0.947,0.552,1.445,0.774
				c2.777,1.242,5.58,2.431,8.473,3.37c2.02,0.655,4.034,1.394,6.175,1.563c0.616,0.049,1.549,0.488,1.802-0.286
				c0.239-0.731-0.724-1.008-1.262-1.33c-3.549-2.125-7.124-4.203-10.862-5.988c-0.57-0.272-1.207-0.477-1.852-1.169
				c1.838,0.242,3.392,0.46,4.951,0.644c0.427,0.05,0.88-0.016,1.12-0.446c0.267-0.478-0.064-0.825-0.37-1.108
				c-2.707-2.507-5.687-4.578-9.287-5.594C172.852,422.267,171.852,422.676,171.382,423.565z"/>
			<path d="M275.363,299.913c-0.558,0.097-0.92,0.54-1.327,0.889c-6.685,5.731-11.964,12.582-16.108,20.325
				c-0.63,1.177-1.134,2.425-1.106,3.816c0.029,1.424,0.589,2.301,1.643,2.499c1.013,0.19,1.715-0.292,2.289-1.627
				c1.302-3.025,2.909-5.889,4.668-8.663c3.19-5.033,6.442-10.026,9.66-15.041c0.294-0.458,0.573-0.936,0.784-1.436
				C276.034,300.273,275.873,299.963,275.363,299.913z"/>
			<path d="M141.435,288.317c3.964,3.236,8.12,6.213,12.328,9.121c2.355,1.627,4.713,3.247,7.287,4.516
				c1.041,0.513,2.112,0.944,3.277,1.063c0.534-0.041,1.254,0.196,1.486-0.397c0.275-0.704-0.558-0.804-0.947-1.097
				c-6.806-5.127-13.757-10.063-20.336-15.49c-1.5-1.237-3.097-2.361-4.678-3.496c-0.602-0.432-1.307-0.797-1.973-0.1
				c-0.612,0.641-0.378,1.349-0.033,2.031c0.305,0.602,0.695,1.149,1.181,1.615C139.818,286.841,140.589,287.626,141.435,288.317z"
				/>
			<path d="M238.428,124.977c0.391,3.274,1.101,6.482,2.089,9.623c1.499,4.767,3.204,9.456,5.67,13.829
				c0.508,0.901,1.04,1.802,1.885,2.441c0.731,0.553,1.539,0.742,2.388,0.27c0.775-0.431,1.132-1.379,0.891-2.383
				c-0.245-1.018-0.751-1.925-1.298-2.807c-1.478-2.384-2.797-4.856-3.936-7.416c-2.03-4.56-4.07-9.117-5.895-13.765
				c-0.222-0.566-0.468-1.124-0.715-1.68c-0.125-0.281-0.295-0.594-0.64-0.562c-0.457,0.042-0.507,0.45-0.545,0.815
				c-0.019,0.18-0.003,0.365-0.003,0.725C238.34,124.252,238.384,124.615,238.428,124.977z"/>
			<path d="M282.475,352.435c-0.618-0.457-1.218,0.536-1.723,1.01c-2.894,2.716-5.279,5.871-7.627,9.047
				c-2.243,3.034-4.222,6.24-5.854,9.649c-0.553,1.154-1.009,2.344-1.153,3.581c0.019,0.766,0.233,1.389,0.945,1.677
				c0.734,0.296,1.317-0.055,1.761-0.602c0.38-0.469,0.704-0.989,1.007-1.513c4.049-6.993,8.096-13.988,12.121-20.995
				C282.285,353.711,283.2,352.971,282.475,352.435z"/>
			<path d="M280.363,404.695c-0.698-0.577-1.51,0.448-2.157,0.937c-2.534,1.914-4.747,4.181-6.832,6.556
				c-2.287,2.604-4.439,5.324-6.141,8.366c-0.507,0.905-0.938,1.841-1.029,2.789c0.011,1.395,0.947,1.985,2.091,1.414
				c0.613-0.306,1.035-0.83,1.475-1.336c2.078-2.39,3.873-4.996,5.725-7.555c2.138-2.954,4.201-5.964,6.219-9.001
				C280.132,406.235,281.194,405.382,280.363,404.695z"/>
			<path d="M138.227,273.346c5.087,3.995,10.413,7.63,16.109,10.706c0.455,0.246,1.004,0.783,1.464,0.275
				c0.484-0.533-0.153-0.978-0.468-1.38c-0.337-0.43-0.718-0.83-1.108-1.214c-1.78-1.751-3.516-3.552-5.371-5.221
				c-2.58-2.32-5.251-4.541-8.015-6.644c-0.734-0.558-1.506-1.044-2.48-1.036c-1.386,0.05-2.186,1.222-1.727,2.559
				C136.92,272.233,137.55,272.814,138.227,273.346z"/>
			<path d="M139.804,280.928c5.582,4.344,11.493,8.183,17.747,11.49c0.371,0.196,0.781,0.33,1.186,0.447
				c0.177,0.051,0.336-0.086,0.401-0.312c0-0.484-0.434-0.669-0.74-0.938c-5.256-4.619-10.63-9.095-16.17-13.371
				c-0.82-0.632-1.65-1.25-2.587-1.702c-0.71-0.342-1.424-0.445-1.988,0.244c-0.502,0.614-0.3,1.261,0.059,1.868
				C138.249,279.559,138.991,280.295,139.804,280.928z"/>
			<path d="M247.202,132.178C247.203,132.273,247.22,132.348,247.202,132.178L247.202,132.178z"/>
			<path d="M254.263,150.727c0.23,0.353,0.506,0.69,0.814,0.975c0.775,0.718,1.586,0.838,2.321,0.397
				c0.729-0.438,1.025-1.236,0.657-2.242c-0.311-0.849-0.74-1.666-1.202-2.447c-2.815-4.757-5.567-9.547-7.948-14.541
				c-0.183-0.383-0.388-0.757-0.606-1.121c-0.16-0.267-0.39-0.501-0.734-0.365c-0.33,0.13-0.356,0.459-0.363,0.767
				c0,0.005,0,0.009,0,0.014c0.079,0.605,0.102,0.839,0.143,1.069C248.464,139.534,250.765,145.368,254.263,150.727z"/>
			<path d="M247.202,132.178c0-0.004,0-0.009,0-0.013c-0.003-0.024-0.006-0.048-0.01-0.073
				C247.197,132.126,247.2,132.154,247.202,132.178z"/>
			<path d="M264.17,453.625c0.623,0.302,1.191,0.135,1.704-0.258c0.239-0.183,0.455-0.405,0.65-0.637
				c3.804-4.522,7.346-9.241,10.619-14.16c0.309-0.465,0.948-1.061,0.34-1.594c-0.59-0.517-1.114,0.178-1.568,0.515
				c-3.584,2.662-6.74,5.778-9.612,9.185c-0.902,1.071-1.765,2.175-2.424,3.42c-0.315,0.594-0.591,1.202-0.653,1.931
				C263.247,452.7,263.486,453.293,264.17,453.625z"/>
			<path d="M146.666,327.592c-0.626-0.225-1.214-0.104-1.648,0.425c-0.489,0.595-0.453,1.259-0.039,1.857
				c0.342,0.493,0.769,0.935,1.195,1.363c0.425,0.428,0.896,0.81,1.347,1.212c-0.293-0.085-0.583-0.179-0.878-0.252
				c-0.933-0.232-1.692,0.069-2.239,0.832c-0.578,0.807-0.372,1.616,0.123,2.382c0.164,0.254,0.364,0.487,0.562,0.717
				c0.267,0.311,0.309,0.562,0.043,0.951c-1.115,1.631-1.085,2.379,0.135,3.832c0.905,1.077,1.978,1.969,3.145,2.761
				c3.779,2.565,7.723,4.861,11.67,7.151c3.368,1.954,6.755,3.877,10.353,5.392c1.404,0.591,2.828,1.12,4.319,1.449
				c0.299,0.066,0.627,0.076,0.741-0.316c0.08-0.276-0.095-0.465-0.293-0.608c-0.296-0.212-0.614-0.394-0.917-0.596
				c-5.369-3.572-10.742-7.14-16.098-10.732c-0.321-0.216-0.947-0.275-0.762-0.997c0.328,0.188,0.646,0.359,0.953,0.548
				c2.592,1.594,5.197,3.165,7.97,4.434c0.831,0.38,1.68,0.714,2.58,0.898c0.31,0.064,0.621,0.088,0.797-0.234
				c0.187-0.341-0.068-0.593-0.277-0.79c-0.931-0.874-1.863-1.749-2.833-2.579c-4.122-3.526-8.676-6.477-12.972-9.772
				c-1.056-0.81-2.218-1.505-3.058-2.576c0.485,0.25,0.975,0.49,1.453,0.751c2.825,1.541,5.641,3.101,8.477,4.621
				c0.539,0.289,1.109,0.762,1.771,0.368c0.083-0.362-0.051-0.574-0.223-0.743c-4.161-4.101-8.497-7.987-13.561-10.967
				C147.934,328.038,147.292,327.817,146.666,327.592z"/>
			<path d="M250.96,295.159c0.591-0.034,1.058-0.318,1.469-0.685c4.075-3.634,8.172-7.244,11.953-11.191
				c0.319-0.333,0.883-0.678,0.589-1.206c-0.368-0.664-0.969-0.138-1.469-0.084c-0.118,0.013-0.234,0.064-0.346,0.11
				c-5.193,2.13-9.411,5.465-12.537,10.147c-0.337,0.505-0.659,1.034-0.68,1.664C249.915,294.619,250.24,295.065,250.96,295.159z"/>
			<path d="M159.991,377.473c-1.508-0.012-2.492,1.378-1.989,2.764c0.28,0.773,0.864,1.297,1.491,1.79
				c3.055,2.401,6.61,3.775,10.24,4.994c0.281,0.094,0.598,0.137,0.894,0.12c0.539-0.032,0.76-0.361,0.575-0.87
				c-0.101-0.277-0.276-0.544-0.473-0.767c-2.626-2.969-5.524-5.612-9.059-7.48C161.132,377.739,160.566,377.526,159.991,377.473z"
				/>
			<path d="M145.521,325.487c2.554,2.205,5.516,3.743,8.541,5.174c0.335,0.158,0.751,0.269,0.995-0.088
				c0.241-0.351-0.01-0.699-0.26-0.972c-2.302-2.516-4.752-4.865-7.659-6.688c-0.466-0.292-0.97-0.504-1.532-0.532
				c-0.887,0.041-1.421,0.794-1.154,1.657C144.637,324.64,145.061,325.09,145.521,325.487z"/>
			<path d="M139.987,268.502c1.949,1.897,4.329,3.132,6.716,4.355c0.159,0.082,0.342,0.149,0.518,0.161
				c0.581,0.042,0.785-0.248,0.602-0.788c-0.077-0.227-0.193-0.452-0.337-0.643c-1.722-2.301-3.67-4.388-5.919-6.185
				c-0.433-0.346-0.914-0.608-1.498-0.591c-1.025,0.029-1.621,0.877-1.323,1.914C138.956,267.453,139.461,267.99,139.987,268.502z"
				/>
			<path d="M262.701,151.639c0.471,0.463,1.043,0.651,1.659,0.316c0.537-0.292,0.694-0.821,0.664-1.4
				c-0.012-0.24-0.069-0.481-0.135-0.713c-0.618-2.191-1.672-4.164-3.036-5.974c-0.215-0.285-0.494-0.543-0.793-0.737
				c-0.372-0.24-0.714-0.131-0.832,0.322c-0.075,0.289-0.061,0.6-0.091,0.943c0.242,2.22,0.821,4.377,1.899,6.383
				C262.206,151.096,262.445,151.387,262.701,151.639z"/>
		</g>
	</g>
</g>
</svg>
